<svg xmlns="http://www.w3.org/2000/svg" version="1.1" xmlns:xlink="http://www.w3.org/1999/xlink" xmlns:svgjs="http://svgjs.dev/svgjs" width="1500" height="1500" viewBox="0 0 1500 1500"><rect width="1500" height="1500" fill="#ffffff"></rect><g transform="matrix(0.6666666666666666,0,0,0.6666666666666666,249.85778443113782,249.85778443113765)"><svg viewBox="0 0 334 334" data-background-color="#ffffff" preserveAspectRatio="xMidYMid meet" height="1500" width="1500" xmlns="http://www.w3.org/2000/svg" xmlns:xlink="http://www.w3.org/1999/xlink"><g id="tight-bounds" transform="matrix(1,0,0,1,0.04749999999998522,0.04750000000001364)"><svg viewBox="0 0 333.90454557049503 333.90454557049503" height="333.90454557049503" width="333.90454557049503"><g><svg></svg></g><g><svg viewBox="0 0 333.90454557049503 333.90454557049503" height="333.90454557049503" width="333.90454557049503"><g><path d="M0 166.952c0-92.205 74.747-166.952 166.952-166.952 92.205 0 166.952 74.747 166.953 166.952 0 92.205-74.747 166.952-166.953 166.953-92.205 0-166.952-74.747-166.952-166.953zM166.952 330.13c90.121 0 163.178-73.057 163.178-163.178 0-90.121-73.057-163.178-163.178-163.177-90.121 0-163.178 73.057-163.177 163.177 0 90.121 73.057 163.178 163.177 163.178z" data-fill-palette-color="tertiary" fill="#000000" stroke="transparent"></path><ellipse rx="160.27418187383762" ry="160.27418187383762" cx="166.95227278524752" cy="166.95227278524752" fill="#000000" stroke="transparent" stroke-width="0" fill-opacity="1" data-fill-palette-color="tertiary"></ellipse></g><g transform="matrix(1,0,0,1,78.9568954666885,71.17305217166896)"><svg viewBox="0 0 175.99075463711804 191.55844122715712" height="191.55844122715712" width="175.99075463711804"><g><svg viewBox="0 0 175.99075463711804 191.55844122715712" height="191.55844122715712" width="175.99075463711804"><g><svg viewBox="0 0 213.15844122715714 232.01388516162942" height="191.55844122715712" width="175.99075463711804"><g><svg viewBox="0 0 213.15844122715714 92.37866078238193" height="92.37866078238193" width="213.15844122715714"><g id="textblocktransform"><svg viewBox="0 0 213.15844122715714 92.37866078238193" height="92.37866078238193" width="213.15844122715714" id="textblock"><g><svg viewBox="0 0 213.15844122715714 61.07290295140311" height="61.07290295140311" width="213.15844122715714"><g transform="matrix(1,0,0,1,0,0)"><svg width="213.15844122715714" viewBox="-3.4 -37.8 206.38 59.849999999999994" height="61.07290295140311" data-palette-color="#ffffff"><path d="M15.9 0.7L15.9 0.7Q15.7 0.7 15.35 0.68 15 0.65 14.6 0.6L14.6 0.6Q14.55 0.6 14.45 0.63 14.35 0.65 14.25 0.65L14.25 0.65Q13.9 0.65 13.53 0.53 13.15 0.4 12.75 0.3L12.75 0.3Q11.85 0.15 11.1-0.15L11.1-0.15Q10.95-0.15 10.83-0.13 10.7-0.1 10.55-0.05L10.55-0.05Q10.25 0.05 10.15 0.05L10.15 0.05 9.8-0.05Q9.7-0.1 9.53-0.15 9.35-0.2 9.2-0.2L9.2-0.2Q8.95-0.25 8.6-0.25 8.25-0.25 8.05-0.25L8.05-0.25 5.05-0.15Q4.95-0.15 4.75-0.25L4.75-0.25Q4.45-0.1 4.1-0.1L4.1-0.1 3.55-0.1Q3.5-0.1 3.4-0.1 3.3-0.1 3.1 0L3.1 0Q2.65 0.2 2.38-0.03 2.1-0.25 2.1-0.6L2.1-0.6Q2.1-0.95 2.43-1.25 2.75-1.55 3.55-1.55L3.55-1.55 4.05-1.55Q4.2-1.7 4.4-1.83 4.6-1.95 4.8-1.95L4.8-1.95Q5.05-1.95 5.33-1.83 5.6-1.7 5.8-1.7L5.8-1.7Q6.5-1.7 7.1-1.93 7.7-2.15 8.35-2.35L8.35-2.35Q8.15-2.55 8.15-2.85L8.15-2.85Q8.15-3.1 8.28-3.33 8.4-3.55 8.55-3.75L8.55-3.75 8.8-4.05Q8.8-4.05 8.83-4.08 8.85-4.1 8.85-4.15L8.85-4.15 8.9-4.25Q8.75-4.4 8.7-4.5L8.7-4.5Q8.4-4.9 8.4-5.4L8.4-5.4Q8.4-6 8.38-6.83 8.35-7.65 8.5-8.43 8.65-9.2 9.1-9.6L9.1-9.6 9.2-9.65Q9.35-9.95 9.13-10.95 8.9-11.95 8.9-13L8.9-13Q8.9-13.55 9.03-14.05 9.15-14.55 9.5-14.9L9.5-14.9Q9.4-15.2 9.3-15.55 9.2-15.9 9.2-16.25L9.2-16.25Q9.2-16.55 9.25-16.7L9.25-16.7Q8.75-16.9 8.75-17.25L8.75-17.25Q8.75-17.5 8.97-17.75 9.2-18 9.45-18.15L9.45-18.15 9.5-18.15 9.45-18.25Q9.45-18.35 9.43-18.48 9.4-18.6 9.4-18.7L9.4-18.7Q9.4-19.05 9.55-19.35L9.55-19.35Q9.35-19.7 9.35-20.05L9.35-20.05Q9.35-20.45 9.6-20.7L9.6-20.7Q9.4-20.8 9.2-20.8L9.2-20.8Q9.15-20.8 9.03-20.78 8.9-20.75 8.8-20.75L8.8-20.75Q8.05-20.25 7.33-19.9 6.6-19.55 5.85-19.15L5.85-19.15Q5.3-18.85 4.73-18.57 4.15-18.3 3.45-18.15L3.45-18.15Q3.4-18.15 3.35-18.13 3.3-18.1 3.2-18.1L3.2-18.1Q2.9-18.1 2.7-18.32 2.5-18.55 2.5-18.8L2.5-18.8Q2.5-19.3 3.05-19.55L3.05-19.55Q3.75-19.8 4.42-20.08 5.1-20.35 5.75-20.7L5.75-20.7Q6.5-21.1 7.23-21.6 7.95-22.1 8.75-22.45L8.75-22.45 8.9-22.55Q9.35-22.8 9.75-23.13 10.15-23.45 10.6-23.8L10.6-23.8Q10.7-23.9 10.9-24L10.9-24Q11-24.05 11.08-24.13 11.15-24.2 11.3-24.25L11.3-24.25 11.75-24.5Q11.8-24.55 11.88-24.6 11.95-24.65 12-24.7L12-24.7Q12.15-24.9 12.45-25.13 12.75-25.35 12.95-25.35L12.95-25.35Q13.4-25.35 13.53-25.1 13.65-24.85 13.65-24.45L13.65-24.45Q13.7-24.1 13.65-24L13.65-24Q13.6-23.95 13.53-23.78 13.45-23.6 13.3-23.2L13.3-23.2Q13.1-22.55 12.9-21.78 12.7-21 12.55-20.25L12.55-20.25Q12.5-20.05 12.55-19.8 12.6-19.55 12.5-19.35L12.5-19.35Q12.4-18.85 12.28-18.38 12.15-17.9 12.1-17.4L12.1-17.4Q12.05-17 11.93-15.55 11.8-14.1 11.65-12.18 11.5-10.25 11.35-8.4 11.2-6.55 11.1-5.28 11-4 11-3.95L11-3.95Q11-3.8 11.03-3.3 11.05-2.8 11.15-2.45L11.15-2.45Q11.25-2.25 11.38-2.05 11.5-1.85 11.65-1.6L11.65-1.6Q12-1.5 12.38-1.35 12.75-1.2 13.1-1.1L13.1-1.1Q13.5-1.05 13.9-1 14.3-0.95 14.65-0.85L14.65-0.85Q14.75-0.9 14.85-0.93 14.95-0.95 15.1-0.95L15.1-0.95Q15.85-0.95 16.23-0.6 16.6-0.25 16.6 0.15L16.6 0.15Q16.6 0.7 15.9 0.7ZM26.55 0.25L26.55 0.25Q26.15 0.25 26 0.1 25.85-0.05 25.75-0.25L25.75-0.25 25.7-0.25Q25.5-0.1 25.25-0.1L25.25-0.1Q24.95-0.1 24.7-0.35L24.7-0.35Q24.2-0.4 23.57-0.43 22.95-0.45 22.1-0.45L22.1-0.45Q21.75-0.45 21.5-0.43 21.25-0.4 20.9-0.4L20.9-0.4 20.8-0.4Q20.75-0.35 20.67-0.35 20.6-0.35 20.5-0.3L20.5-0.3 20.05 0.15Q19.85 0.3 19.6 0.3L19.6 0.3Q19.3 0.3 19.07 0.05 18.85-0.2 18.85-0.5L18.85-0.5Q18.85-0.85 19.15-1.05L19.15-1.05Q19.6-1.4 20-2.08 20.4-2.75 20.8-3.43 21.2-4.1 21.7-4.4L21.7-4.4Q21.95-4.75 22.2-5.08 22.45-5.4 22.65-5.75L22.65-5.75Q22.65-5.95 22.62-6.1 22.6-6.25 22.6-6.35L22.6-6.35Q22.6-7.05 23.35-7.05L23.35-7.05Q23.65-7.05 23.75-7.4 23.85-7.75 24.12-8.22 24.4-8.7 25.1-9.1L25.1-9.1Q25.25-9.8 25.7-10.15 26.15-10.5 26.6-10.7L26.6-10.7Q26.85-10.95 27.12-11.23 27.4-11.5 27.65-11.7L27.65-11.7Q28.1-13.25 28.97-13.68 29.85-14.1 30.9-14.6L30.9-14.6Q32.05-15.6 33.05-16.85 34.05-18.1 34.05-19.55L34.05-19.55Q34.05-21.75 32.8-22.75 31.55-23.75 29.8-23.75L29.8-23.75Q27.85-23.75 26.57-22.58 25.3-21.4 24.95-20.2L24.95-20.2Q24.9-20 24.87-19.8 24.85-19.6 24.8-19.4L24.8-19.4Q24.7-18.95 24.6-18.8L24.6-18.8Q24.4-18.4 23.85-18.35L23.85-18.35Q24-17.55 24.45-16.98 24.9-16.4 25.55-16.4L25.55-16.4Q26.1-16.4 26.4-16.57 26.7-16.75 27.05-17.2L27.05-17.2Q27.3-17.45 27.55-17.45L27.55-17.45Q28.35-17.45 28.35-16.7L28.35-16.7Q28.35-16.4 28.15-16.2L28.15-16.2Q27.65-15.7 27.1-15.33 26.55-14.95 25.55-14.95L25.55-14.95Q24.45-14.95 23.77-15.55 23.1-16.15 22.77-17.03 22.45-17.9 22.4-18.65L22.4-18.65Q22.1-18.95 22.1-19.4L22.1-19.4Q22.1-19.6 22.15-19.78 22.2-19.95 22.25-20.05L22.25-20.05Q22.5-20.85 22.9-21.58 23.3-22.3 23.95-22.8L23.95-22.8Q24-22.85 24.25-22.85L24.25-22.85Q24.4-22.9 24.57-22.95 24.75-23 24.85-23.05L24.85-23.05Q25.05-23.2 25.2-23.4 25.35-23.6 25.5-23.8L25.5-23.8Q25.65-24 25.77-24.15 25.9-24.3 26.05-24.35L26.05-24.35Q27.1-24.8 28.3-24.93 29.5-25.05 30.45-25.05L30.45-25.05Q32.35-25.05 33.6-24.15 34.85-23.25 35.4-21.8L35.4-21.8Q35.9-20.65 35.9-19.15L35.9-19.15Q35.9-17.3 34.95-15.68 34-14.05 32.57-12.65 31.15-11.25 29.8-10.15L29.8-10.15Q29.35-9.8 28.97-9.35 28.6-8.9 28.3-8.5L28.3-8.5Q28.05-8.15 27.77-7.78 27.5-7.4 27.15-7.05L27.15-7.05Q26.15-5.95 25.37-4.9 24.6-3.85 23.55-2.25L23.55-2.25 22.8-1.5Q23.45-1.45 23.95-1.45 24.45-1.45 24.8-1.45L24.8-1.45Q25.05-1.7 25.37-1.88 25.7-2.05 25.95-2.05L25.95-2.05Q26.2-2.05 26.42-1.9 26.65-1.75 26.8-1.55L26.8-1.55 27.15-1.55Q27.4-1.75 27.67-1.98 27.95-2.2 28.15-2.2L28.15-2.2Q28.45-2.2 28.65-1.9L28.65-1.9Q28.8-2.15 29.05-2.35 29.3-2.55 29.75-2.55L29.75-2.55Q30.4-2.55 30.75-1.95L30.75-1.95Q30.85-2.05 31-2.1 31.15-2.15 31.25-2.25L31.25-2.25 32.85-4.6Q33.25-5.25 33.72-5.93 34.2-6.6 34.85-7.3L34.85-7.3Q35.1-7.55 35.35-7.55L35.35-7.55Q36.15-7.55 36.15-6.8L36.15-6.8Q36.15-6.5 35.95-6.3L35.95-6.3Q35.65-6 35.4-5.7 35.15-5.4 34.9-5.05L34.9-5.05Q34.55-4.2 34.5-3.45 34.45-2.7 34.45-2.1L34.45-2.1Q34.45-1.85 34.45-1.58 34.45-1.3 34.4-1.05L34.4-1.05Q34.35-0.7 34.15-0.6L34.15-0.6Q33.15 0 32.1 0L32.1 0 30.9 0Q30.6 0 30.5-0.05L30.5-0.05 29.8-0.05 29.75 0.05Q29.7 0.8 29.3 0.8L29.3 0.8Q29 0.8 28.67 0.5 28.35 0.2 28.1-0.05L28.1-0.05 27.6-0.1Q27 0.25 26.55 0.25ZM38.75-8L38.75-8 38.7-8Q38.35-8 38.35-8.6L38.35-8.6Q38.35-9.1 38.52-9.47 38.7-9.85 39-9.9L39-9.9Q39.7-10 40.2-10 40.7-10 41.4-10L41.4-10Q41.75-10 42.55-9.88 43.35-9.75 44.2-9.63 45.05-9.5 45.55-9.5L45.55-9.5Q45.9-9.5 46.35-9.65L46.35-9.65Q46.65-9.8 47-9.8L47-9.8Q47.5-9.8 47.5-9.15L47.5-9.15Q47.5-8.95 47.37-8.72 47.25-8.5 47-8.5L47-8.5Q46.9-8.5 46.8-8.47 46.7-8.45 46.6-8.45L46.6-8.45Q46.35-8.4 46.07-8.28 45.8-8.15 45.55-8.15L45.55-8.15 41-8.1Q40.35-8.1 39.87-8.1 39.4-8.1 38.75-8ZM93.34 9.15L93.34 9.15Q92.24 9.15 91.49 8.5 90.74 7.85 90.39 6.9L90.39 6.9Q89.44 5.15 89.44 2.6L89.44 2.6Q89.44 0.55 89.97-1.33 90.49-3.2 90.94-5.15L90.94-5.15Q91.24-6.6 91.24-7.6 91.24-8.6 91.64-10.2L91.64-10.2Q91.79-10.75 91.97-11.9 92.14-13.05 92.39-14.38 92.64-15.7 92.94-16.73 93.24-17.75 93.59-18.1L93.59-18.1Q93.69-18.2 93.89-18.3L93.89-18.3 93.99-18.4Q93.69-18.75 93.47-19.07 93.24-19.4 93.24-19.9L93.24-19.9Q93.24-20.15 93.32-20.3 93.39-20.45 93.44-20.6L93.44-20.6Q93.14-20.7 92.84-20.7L92.84-20.7Q90.69-20.7 89.19-19.9 87.69-19.1 86.59-17.55L86.59-17.55Q86.49-17.05 86.37-16.57 86.24-16.1 86.24-15.6L86.24-15.6 86.29-15.6Q86.99-15.3 86.99-14.35L86.99-14.35Q86.99-13.95 87.02-13.58 87.04-13.2 87.04-12.85L87.04-12.85Q87.04-12.15 86.89-11.48 86.74-10.8 86.19-10.1L86.19-10.1Q86.24-9.9 86.24-9.55L86.24-9.55 86.34-9.15Q86.44-9 86.44-8.65L86.44-8.65Q86.74-7.3 86.74-5.8L86.74-5.8Q86.74-4.4 86.32-3.13 85.89-1.85 84.84-1.05 83.79-0.25 81.89-0.25L81.89-0.25Q80.99-0.25 80.54-1.18 80.09-2.1 79.92-3.25 79.74-4.4 79.74-4.95L79.74-4.95Q79.74-7.25 80.02-8.8 80.29-10.35 80.84-11.53 81.39-12.7 82.14-13.85 82.89-15 83.84-16.55L83.84-16.55Q83.64-17.25 83.54-17.82 83.44-18.4 83.24-19.1L83.24-19.1Q82.64-19.35 82.49-19.6 82.34-19.85 82.34-20.05L82.34-20.05 82.34-20.35Q82.34-20.6 82.27-20.9 82.19-21.2 81.79-21.65L81.79-21.65Q81.34-22.15 80.82-22.53 80.29-22.9 79.94-23.4L79.94-23.4 79.84-23.55Q78.99-23.2 78.49-22.53 77.99-21.85 77.74-21L77.74-21Q77.39-19.3 77.39-17.45 77.39-15.6 77.24-14.75L77.24-14.75Q76.69-11.15 76.04-7.63 75.39-4.1 75.39-0.45L75.39-0.45Q75.39 0.75 75.49 1.6 75.59 2.45 75.59 3L75.59 3Q75.59 3.95 74.94 4.35 74.29 4.75 72.09 5L72.09 5 71.69 5.05Q71.59 5.05 71.52 5.08 71.44 5.1 71.39 5.1L71.39 5.1Q71.04 5.1 70.74 4.8 70.44 4.5 70.44 4.15L70.44 4.15Q70.44 2.25 70.87 0.43 71.29-1.4 71.69-3.25 72.09-5.1 72.09-7L72.09-7 72.09-7.85Q72.09-11.05 71.84-14.1 71.59-17.15 70.44-19.6L70.44-19.6Q70.14-20.3 70.17-21.03 70.19-21.75 69.94-22.25L69.94-22.25Q68.89-24.2 66.99-26.03 65.09-27.85 62.89-28.5L62.89-28.5Q62.59-28.55 62.29-28.58 61.99-28.6 61.69-28.6L61.69-28.6 58.99-28.6Q58.59-28.6 58.44-28.7L58.44-28.7Q56.39-26.95 54.57-25.25 52.74-23.55 51.62-21.4 50.49-19.25 50.49-16.2L50.49-16.2Q50.49-14.65 50.92-13 51.34-11.35 52.09-10L52.09-10Q52.49-9.8 52.79-9.47 53.09-9.15 53.14-8.6L53.14-8.6Q53.34-8.3 53.49-8.2L53.49-8.2Q54.09-7.95 55.32-7.8 56.54-7.65 57.14-7.65L57.14-7.65Q57.54-7.65 58.19-7.68 58.84-7.7 59.49-7.75L59.49-7.75Q60.34-7.9 61.47-8.3 62.59-8.7 63.54-9.3L63.54-9.3Q63.64-9.4 63.64-9.45 63.64-9.5 63.69-9.55L63.69-9.55Q64.04-10.25 64.14-11.15 64.24-12.05 64.24-12.95L64.24-12.95Q64.24-13.5 64.22-13.98 64.19-14.45 64.19-14.9L64.19-14.9Q64.19-15.6 63.87-16.2 63.54-16.8 63.04-17.15L63.04-17.15Q62.84-17.2 62.64-17.2 62.44-17.2 62.24-17.2L62.24-17.2Q61.84-17.2 61.59-17.45L61.59-17.45Q60.74-17.4 59.87-16.78 58.99-16.15 58.99-15.2L58.99-15.2Q58.99-14.6 59.39-13.95L59.39-13.95Q59.54-13.75 59.54-13.5L59.54-13.5Q59.54-13.1 59.24-12.83 58.94-12.55 58.54-12.55L58.54-12.55Q58.09-12.55 57.79-13.05L57.79-13.05Q57.49-13.6 57.32-14.08 57.14-14.55 57.14-15.2L57.14-15.2Q57.14-16.7 58.02-17.6 58.89-18.5 60.02-18.93 61.14-19.35 61.89-19.35L61.89-19.35Q62.89-19.35 63.79-18.85L63.79-18.85Q64.19-18.75 64.57-18.6 64.94-18.45 65.34-18.35L65.34-18.35Q66.09-18.15 66.34-17.65 66.59-17.15 66.59-16.75L66.59-16.75 66.59-16.7 66.69-16.65Q66.89-16.6 67.32-16.35 67.74-16.1 67.74-15.4L67.74-15.4Q67.74-14.95 67.49-14.68 67.24-14.4 67.14-14.3L67.14-14.3Q67.09-13.8 67.34-13.33 67.59-12.85 67.59-12.2L67.59-12.2Q67.59-11.75 67.29-11.15L67.29-11.15Q66.39-9.55 65.19-8.4L65.19-8.4Q64.69-7.65 63.79-7.08 62.89-6.5 61.34-6.15L61.34-6.15Q61.24-6.1 61.09-6.1 60.94-6.1 60.79-6.05L60.79-6.05Q60.29-5.95 59.72-5.88 59.14-5.8 58.54-5.8L58.54-5.8Q57.84-5.8 57.32-5.73 56.79-5.65 56.09-5.65L56.09-5.65Q55.29-5.65 54.54-5.98 53.79-6.3 52.94-6.15L52.94-6.15Q51.99-6 51.62-6.55 51.24-7.1 51.24-7.9L51.24-7.9Q51.09-8.15 50.92-8.38 50.74-8.6 50.59-8.85L50.59-8.85Q50.09-9.15 49.47-9.43 48.84-9.7 48.47-10.55 48.09-11.4 48.24-13.45L48.24-13.45Q48.34-14.65 47.84-15.73 47.34-16.8 47.34-18.05L47.34-18.05Q47.34-18.55 47.79-18.9L47.79-18.9 47.79-18.95Q47.64-19.25 47.64-19.55L47.64-19.55Q47.64-20.05 47.97-20.4 48.29-20.75 48.74-20.9L48.74-20.9 48.89-20.95Q49.19-21.75 49.24-22.58 49.29-23.4 49.94-24.05L49.94-24.05Q50.79-24.95 51.59-26.08 52.39-27.2 53.29-28.28 54.19-29.35 55.29-30.03 56.39-30.7 57.89-30.7L57.89-30.7 57.99-30.7Q58.09-30.8 58.24-30.8 58.39-30.8 58.49-30.8L58.49-30.8Q58.89-30.8 59.09-30.6L59.09-30.6 59.69-30.45Q60.09-30.55 60.37-30.6 60.64-30.65 60.99-30.65L60.99-30.65Q61.89-30.65 62.84-30.35L62.84-30.35Q64.94-30.15 66.42-29.08 67.89-28 69.19-26.55L69.19-26.55Q69.54-26.2 69.87-25.83 70.19-25.45 70.49-25.05L70.49-25.05 70.84-24.65Q71.64-23.75 72.07-22.9 72.49-22.05 72.69-20.8L72.69-20.8Q72.89-20.6 72.99-20.55L72.99-20.55Q73.44-20.35 73.84-19.45 74.24-18.55 74.49-17.45 74.74-16.35 74.74-15.6L74.74-15.6Q74.74-15.25 74.64-14.95L74.64-14.95Q74.74-14.9 74.84-14.8 74.94-14.7 74.99-14.6L74.99-14.6 75.14-15.25Q75.54-16.95 75.54-18.48 75.54-20 75.99-21.55L75.99-21.55Q76.34-23.3 77.22-24.55 78.09-25.8 80.04-25.8L80.04-25.8Q80.44-25.8 80.74-25.8 81.04-25.8 81.29-25.7L81.29-25.7Q81.44-25.7 81.57-25.73 81.69-25.75 81.79-25.75L81.79-25.75Q82.84-25.75 83.42-25.03 83.99-24.3 83.79-23.65L83.79-23.65Q84.19-23 84.59-22.3 84.99-21.6 85.74-21.05L85.74-21.05Q86.29-20.65 86.49-20.25L86.49-20.25Q88.89-22.35 92.34-22.5L92.34-22.5Q92.54-22.6 92.69-22.6L92.69-22.6Q93.29-22.6 94.07-22.35 94.84-22.1 95.44-21.7 96.04-21.3 95.99-20.75L95.99-20.75Q96.34-20.2 96.47-19.58 96.59-18.95 96.59-18.35L96.59-18.35Q96.59-17.25 96.59-16.7 96.59-16.15 96.34-15.73 96.09-15.3 95.29-14.45L95.29-14.45Q94.89-14.05 94.89-13.5L94.89-13.5Q94.89-13.15 94.97-12.78 95.04-12.4 95.04-11.95L95.04-11.95Q95.04-11.45 94.82-10.88 94.59-10.3 93.84-9.6L93.84-9.6Q93.74-9.4 93.72-9.22 93.69-9.05 93.69-8.8L93.69-8.8Q93.69-7.05 93.19-5.38 92.69-3.7 92.34-1.95L92.34-1.95Q92.09-0.7 91.92 0.53 91.74 1.75 91.74 2.95L91.74 2.95 91.74 3Q91.74 3.5 91.79 4.45 91.84 5.4 92.14 6.2L92.14 6.2Q92.39 6.65 92.94 7.2L92.94 7.2Q93.14 7.3 93.34 7.3L93.34 7.3Q94.39 7.3 94.64 7.03 94.89 6.75 94.89 5.95L94.89 5.95Q94.89 5.25 94.72 5.05 94.54 4.85 93.69 4.95L93.69 4.95Q93.19 5 92.94 4.7 92.69 4.4 92.69 4.05L92.69 4.05Q92.69 3.2 93.49 3.15L93.49 3.15Q95.24 3 95.99 3.75 96.74 4.5 96.74 5.95L96.74 5.95Q96.74 9.15 93.34 9.15ZM82.14-2.15L82.14-2.15Q83.74-2.25 84.29-3.15 84.84-4.05 84.84-5.3L84.84-5.3Q84.84-6.6 84.54-7.93 84.24-9.25 84.24-10L84.24-10Q84.24-10.3 84.34-10.5L84.34-10.5 84.39-10.6Q84.44-11.5 84.54-12.15 84.64-12.8 84.64-13.45L84.64-13.45Q84.64-13.7 84.62-13.93 84.59-14.15 84.54-14.4L84.54-14.4Q83.04-12.65 82.32-10.25 81.59-7.85 81.59-4.95L81.59-4.95Q81.59-4.3 81.72-3.53 81.84-2.75 82.14-2.15ZM95.39 9.5L95.39 9.5Q95.19 9.5 94.97 9.47 94.74 9.45 94.54 9.4L94.54 9.4 94.44 9.45 94.39 9.45Q92.94 9.45 92.07 8.63 91.19 7.8 90.84 6.7 90.49 5.6 90.49 4.85L90.49 4.85Q90.49 2.85 91.97 1.7 93.44 0.55 95.59 0.55L95.59 0.55Q96.74 0.55 97.32 1.28 97.89 2 98.09 2.85L98.09 2.85Q98.19 3.1 98.29 3.4 98.39 3.7 98.39 4L98.39 4Q98.39 4.75 97.54 5.25 96.69 5.75 96.04 5.75L96.04 5.75Q95.69 5.75 95.52 5.53 95.34 5.3 95.34 5.05L95.34 5.05Q95.34 4.3 96.04 4.3L96.04 4.3Q96.24 4.3 96.47 4.17 96.69 4.05 96.84 3.95L96.84 3.95Q96.79 3.95 96.72 3.93 96.64 3.9 96.54 3.9L96.54 3.9Q96.19 3.75 95.87 3.58 95.54 3.4 95.24 3.2L95.24 3.2 95.19 3.2Q95.04 3.65 94.59 3.65L94.59 3.65Q94.39 3.65 94.19 3.6 93.99 3.55 93.84 3.5L93.84 3.5Q93.79 3.65 93.74 3.8 93.69 3.95 93.54 4.1L93.54 4.1Q93.69 4.3 93.69 4.65L93.69 4.65Q93.69 5 93.44 5.28 93.19 5.55 92.84 5.65L92.84 5.65 92.69 5.7 92.69 6Q92.79 5.95 92.89 5.93 92.99 5.9 93.09 5.9L93.09 5.9Q93.64 5.9 93.74 6.33 93.84 6.75 93.97 7.25 94.09 7.75 94.69 7.95L94.69 7.95Q96.14 7.9 97.19 7.45 98.24 7 98.99 6.25L98.99 6.25Q99.14 5.9 99.39 5.55 99.64 5.2 99.99 5.05L99.99 5.05 100.04 4.95Q100.04 4.85 100.14 4.65L100.14 4.65 100.14 4.5Q100.14 3.7 100.89 3.45L100.89 3.45Q101.34 2.6 101.74 1.78 102.14 0.95 102.59 0.2L102.59 0.2Q102.69-1 102.24-1.88 101.79-2.75 101.79-3.55L101.79-3.55Q101.79-3.7 101.82-3.83 101.84-3.95 101.89-4.1L101.89-4.1Q101.24-4.2 100.97-4.93 100.69-5.65 100.74-6.25L100.74-6.25 100.29-6.25Q99.79-6.25 99.72-6.7 99.64-7.15 99.74-7.73 99.84-8.3 99.69-8.55L99.69-8.55Q99.59-8.75 99.32-9.35 99.04-9.95 98.72-10.6 98.39-11.25 98.04-11.55L98.04-11.55 95.04-11.55Q94.24-11.55 94.24-12.3L94.24-12.3Q94.24-12.55 94.44-12.78 94.64-13 94.99-13L94.99-13Q95.29-13.05 95.57-13.05 95.84-13.05 96.14-13.05L96.14-13.05Q97.29-13.45 98.62-13.58 99.94-13.7 100.94-14.05L100.94-14.05Q101.69-14.8 102.49-15.15L102.49-15.15Q102.89-15.45 103.24-15.5L103.24-15.5 103.44-15.5Q103.84-15.5 104.04-15.3 104.24-15.1 104.24-14.85L104.24-14.85Q104.24-14.4 103.69-14.15L103.69-14.15Q103.64-14.1 103.49-14.03 103.34-13.95 103.19-13.85L103.19-13.85 103.14-13.85 102.94-13.6Q102.64-13.4 102.37-13.2 102.09-13 101.74-12.85L101.74-12.85Q101.59-12.65 101.47-12.5 101.34-12.35 101.34-12.25L101.34-12.25Q101.34-11.05 102.09-9.73 102.84-8.4 103.49-6.85L103.49-6.85Q103.79-6.15 104.22-5.03 104.64-3.9 104.84-3.15L104.84-3.15Q104.84-3.25 105.07-3.7 105.29-4.15 105.29-4.2L105.29-4.2 105.29-4.55Q105.29-4.6 105.39-4.9L105.39-4.9Q105.59-5.25 105.87-5.63 106.14-6 106.39-6.4L106.39-6.4Q106.59-6.9 106.77-7.4 106.94-7.9 107.19-8.4L107.19-8.4 107.24-8.6Q107.24-9.15 107.24-9.85 107.24-10.55 107.47-11.18 107.69-11.8 108.24-12L108.24-12 108.44-12.35 108.34-12.45Q108.34-12.45 108.32-12.58 108.29-12.7 108.34-12.85L108.34-12.85Q108.34-13.4 108.94-14.25 109.54-15.1 109.84-15.55L109.84-15.55Q110.19-16.1 110.74-16.57 111.29-17.05 112.24-17.05L112.24-17.05Q112.84-17.05 113.39-16.5L113.39-16.5 113.44-16.45Q113.54-16.4 113.62-16.4 113.69-16.4 113.74-16.35L113.74-16.35Q113.84-16.35 113.94-16.32 114.04-16.3 114.09-16.3L114.09-16.3Q114.89-16.15 115.29-15.5L115.29-15.5Q116.29-14.6 116.29-13.35L116.29-13.35Q116.29-12.8 116.07-12.38 115.84-11.95 115.49-11.7L115.49-11.7Q114.69-10.6 113.04-10.6L113.04-10.6Q112.64-10.6 112.54-10.65L112.54-10.65 112.39-10.65Q111.69-10.65 111.69-11.4L111.69-11.4Q111.69-11.65 111.87-11.88 112.04-12.1 112.39-12.1L112.39-12.1 112.64-12.1 112.84-12.05 112.94-12.05Q113.04-12.2 113.19-12.35 113.34-12.5 113.59-12.55L113.59-12.55Q113.84-12.65 114.04-13.08 114.24-13.5 114.24-13.95L114.24-13.95Q114.24-14.35 114.14-14.5L114.14-14.5 114.09-14.6Q113.99-14.7 113.87-14.78 113.74-14.85 113.64-14.85L113.64-14.85 113.59-14.85Q112.69-14.85 111.74-13.9L111.74-13.9 111.59-13.75Q110.94-13.1 110.67-12.6 110.39-12.1 110.24-11.58 110.09-11.05 109.69-10.25L109.69-10.25Q109.64-10.05 109.69-9.9 109.74-9.75 109.74-9.5L109.74-9.5Q109.74-9.2 109.54-8.75 109.34-8.3 108.74-7.55L108.74-7.55 108.39-7.2Q108.34-6.95 108.19-6.7 108.04-6.45 107.94-6.2L107.94-6.2 107.94-5.8Q107.94-5.4 107.59-4.33 107.24-3.25 106.79-2.75L106.79-2.75Q106.74-2.4 106.54-2.02 106.34-1.65 105.79-1.2L105.79-1.2 105.59-1.05Q105.19 0 104.44 1.05L104.44 1.05Q103.99 2.4 103.24 3.65L103.24 3.65Q103.09 4.6 102.24 4.75L102.24 4.75Q102.14 4.85 101.99 4.93 101.84 5 101.74 5.1L101.74 5.1 101.64 5.15 101.69 5.2Q101.69 5.65 101.34 6L101.34 6Q101.29 6.75 101.12 7.25 100.94 7.75 99.89 7.7L99.89 7.7Q99.74 8.05 99.39 8.35L99.39 8.35Q99.34 8.5 99.24 8.63 99.14 8.75 98.94 8.85L98.94 8.85Q98.59 9.1 97.84 9.25 97.09 9.4 96.39 9.45 95.69 9.5 95.39 9.5ZM117.09 1.35L117.09 1.35Q115.64 1.35 115.19 0.28 114.74-0.8 114.74-1.9L114.74-1.9 114.74-2.95Q114.74-4.1 115.39-4.33 116.04-4.55 116.84-4.55L116.84-4.55Q117.69-4.55 118.39-4.28 119.09-4 119.74-3.6L119.74-3.6Q120.49-5.4 120.74-7.53 120.99-9.65 121.84-11.4L121.84-11.4Q122.09-11.8 122.14-12.15L122.14-12.15Q121.29-12.45 120.24-13.2 119.19-13.95 119.19-15.35L119.19-15.35Q119.19-16.6 120.06-17.48 120.94-18.35 122.16-18.95 123.39-19.55 124.44-19.85L124.44-19.85Q124.64-20.7 124.96-21.43 125.29-22.15 125.44-23L125.44-23Q125.64-24.05 125.76-25.23 125.89-26.4 126.36-27.43 126.84-28.45 127.89-29L127.89-29Q128.19-29.15 128.39-29.15L128.39-29.15Q128.59-29.15 128.79-29.05L128.79-29.05Q129.29-29.15 129.79-29.15L129.79-29.15Q130.24-29.15 130.49-28.88 130.74-28.6 130.74-28.2L130.74-28.2Q130.74-27.9 130.51-27.63 130.29-27.35 129.84-27.35L129.84-27.35Q129.14-27.3 128.89-26.7 128.64-26.1 128.59-25.23 128.54-24.35 128.54-23.5 128.54-22.65 128.29-22.15L128.29-22.15Q128.04-21.65 127.94-21.2 127.84-20.75 127.79-20.35L127.79-20.35Q128.49-20.2 129.16-20 129.84-19.8 130.54-19.8L130.54-19.8Q130.74-19.8 130.91-19.88 131.09-19.95 131.29-19.95L131.29-19.95Q131.94-19.95 132.31-19.68 132.69-19.4 133.19-19.05L133.19-19.05Q133.39-19.15 133.54-19.15L133.54-19.15Q134.19-19.15 134.54-18.55L134.54-18.55Q134.94-19.15 135.29-19.68 135.64-20.2 135.89-20.45L135.89-20.45Q136.19-21 136.19-21.5 136.19-22 136.31-22.35 136.44-22.7 136.99-22.8L136.99-22.8Q136.99-23.1 136.96-23.38 136.94-23.65 136.94-23.95L136.94-23.95 136.44-25.35Q136.34-25.6 136.31-25.78 136.29-25.95 136.29-26.05L136.29-26.05Q136.29-26.2 136.31-26.33 136.34-26.45 136.34-26.6L136.34-26.6Q136.34-26.7 136.29-26.9 136.24-27.1 136.04-27.4L136.04-27.4Q135.94-27.55 135.81-27.7 135.69-27.85 135.59-27.95L135.59-27.95 135.39-28Q134.69-28.2 134.44-28.8L134.44-28.8 134.39-28.85Q133.64-29.05 132.94-29.4 132.24-29.75 131.44-29.75L131.44-29.75 131.19-30Q129.79-30.3 128.29-30.3L128.29-30.3Q126.49-30.3 124.69-30 122.89-29.7 121.36-29 119.84-28.3 118.91-27.13 117.99-25.95 117.99-24.2L117.99-24.2Q117.99-23.1 118.29-22.65 118.59-22.2 119.54-22.2L119.54-22.2Q119.94-22.2 120.69-22.55 121.44-22.9 121.79-23.1L121.79-23.1Q122.24-23.35 122.34-23.95 122.44-24.55 122.44-25.25 122.44-25.95 122.51-26.45 122.59-26.95 122.94-26.95L122.94-26.95Q123.64-26.95 123.99-26.4 124.34-25.85 124.34-25L124.34-25Q124.34-24 123.89-22.9 123.44-21.8 122.64-21.05 121.84-20.3 120.74-20.3L120.74-20.3Q120.49-20.35 120.16-20.33 119.84-20.3 119.54-20.35L119.54-20.35Q117.99-20.8 117.06-21.5 116.14-22.2 116.14-24.2L116.14-24.2Q116.14-26.65 117.36-28.2 118.59-29.75 120.46-30.6 122.34-31.45 124.39-31.78 126.44-32.1 128.09-32.1L128.09-32.1Q128.34-32.25 128.64-32.25L128.64-32.25Q128.99-32.25 129.41-32.27 129.84-32.3 130.19-32.3L130.19-32.3Q130.74-32.3 131.16-32.2 131.59-32.1 131.94-31.75L131.94-31.75Q132.79-31.55 133.66-31.28 134.54-31 135.34-30.6L135.34-30.6Q135.59-30.6 135.84-30.35L135.84-30.35Q137.44-29.5 138.49-28.13 139.54-26.75 139.59-24.7L139.59-24.7Q139.69-24.5 139.69-24.4L139.69-24.4Q139.69-21.85 138.71-19.75 137.74-17.65 136.09-16.05L136.09-16.05Q137.44-15.1 138.36-13.43 139.29-11.75 139.29-9.95L139.29-9.95Q139.29-9.45 139.41-8.58 139.54-7.7 139.54-6.85L139.54-6.85Q139.54-6.35 139.46-5.93 139.39-5.5 139.14-5.2L139.14-5.2Q139.09-5.15 138.81-4.7 138.54-4.25 138.29-3.8 138.04-3.35 137.99-3.3L137.99-3.3Q137.99-2.55 137.49-1.98 136.99-1.4 136.36-1.03 135.74-0.65 135.29-0.55L135.29-0.55Q134.74-0.25 134.24 0.15 133.74 0.55 133.09 0.75L133.09 0.75Q131.54 1.15 130.24 1.25 128.94 1.35 127.54 1.35L127.54 1.35Q124.74 1.35 122.24-0.05L122.24-0.05Q121.34-0.35 120.64-0.8L120.64-0.8 120.54-0.85Q120.29-0.55 120.04-0.3 119.79-0.05 119.69 0.05L119.69 0.05Q119.19 0.5 118.51 0.93 117.84 1.35 117.09 1.35ZM125.69-14.2L125.69-14.2Q127.89-14.45 129.34-14.78 130.79-15.1 132.49-16.4L132.49-16.4 132.59-16.4Q131.49-17.25 130.14-17.78 128.79-18.3 127.34-18.35L127.34-18.35Q127.19-18.1 126.99-17.8 126.79-17.5 126.44-17.15L126.44-17.15Q126.39-17.1 126.36-17.05 126.34-17 126.34-17L126.34-17Q126.44-16.6 126.51-16.28 126.59-15.95 126.59-15.7L126.59-15.7Q126.59-14.95 125.69-14.2ZM122.59-14L122.59-14Q122.69-14.4 122.76-14.83 122.84-15.25 123.04-15.65L123.04-15.65Q123.24-16.2 123.44-16.68 123.64-17.15 123.84-17.65L123.84-17.65Q123.04-17.2 122.04-16.63 121.04-16.05 121.04-15.35L121.04-15.35Q121.04-14.85 121.69-14.5 122.34-14.15 122.59-14ZM128.39-0.8L128.39-0.8Q129.64-0.8 130.99-1.18 132.34-1.55 133.51-2.18 134.69-2.8 135.29-3.6L135.29-3.6Q135.94-4.45 136.11-6 136.29-7.55 136.29-9L136.29-9Q136.29-10.6 135.76-12.03 135.24-13.45 134.34-14.6L134.34-14.6Q132.39-13.25 130.01-12.53 127.64-11.8 125.19-11.8L125.19-11.8Q125.04-11.45 124.89-11.15 124.74-10.85 124.64-10.45L124.64-10.45Q124.29-9 123.61-7.5 122.94-6 122.94-4.5L122.94-4.5Q122.94-4.15 122.61-3.6 122.29-3.05 121.89-2.45L121.89-2.45 122.49-2Q123.54-1.5 124.96-1.15 126.39-0.8 128.39-0.8ZM117.09-0.55L117.09-0.55 117.14-0.55 117.39-0.8Q118.24-1.3 118.84-2.05L118.84-2.05Q118.39-2.3 117.89-2.48 117.39-2.65 116.84-2.7L116.84-2.7 116.59-2.7 116.59-1.7Q116.59-1.35 116.66-0.93 116.74-0.5 117.09-0.55ZM149.84 0.3L149.84 0.3Q149.79 0.3 149.71 0.28 149.64 0.25 149.54 0.25L149.54 0.25 148.94 0.1Q148.59 0 148.31-0.08 148.04-0.15 147.94-0.15L147.94-0.15Q147.74-0.15 147.44-0.05L147.44-0.05Q147.14 0.05 146.99 0.05L146.99 0.05Q146.94 0.05 146.84 0 146.74-0.05 146.69-0.05L146.69-0.05Q146.54-0.1 146.39-0.15 146.24-0.2 146.04-0.2L146.04-0.2Q145.79-0.3 145.44-0.28 145.09-0.25 144.94-0.25L144.94-0.25Q144.89-0.25 144.51-0.25 144.14-0.25 143.69-0.2L143.69-0.2Q143.04-0.05 142.36 0.05 141.69 0.15 141.44 0.15L141.44 0.15Q141.19 0.15 140.96 0.05 140.74-0.05 140.49-0.05L140.49-0.05Q140.14-0.05 139.96-0.3 139.79-0.55 139.79-0.8L139.79-0.8Q139.79-1.55 140.49-1.55L140.49-1.55Q140.74-1.55 140.99-1.45 141.24-1.35 141.44-1.35L141.44-1.35 141.69-1.35Q141.84-1.45 141.96-1.5 142.09-1.55 142.09-1.55L142.09-1.55Q142.19-1.55 142.49-1.45L142.49-1.45Q142.89-1.55 143.29-1.63 143.69-1.7 143.89-1.75L143.89-1.75Q143.99-2.4 144.11-2.98 144.24-3.55 145.14-3.6L145.14-3.6 145.14-3.65 145.29-3.9Q145.39-4.1 145.56-4.33 145.74-4.55 145.99-4.75L145.99-4.75Q145.89-5.15 145.49-5.73 145.09-6.3 145.09-6.8L145.09-6.8Q145.09-7.15 145.39-7.35L145.39-7.35Q145.49-7.45 145.54-8.2 145.59-8.95 145.66-9.83 145.74-10.7 145.94-11.05L145.94-11.05Q146.04-11.25 145.91-11.63 145.79-12 145.79-12.45L145.79-12.45Q145.79-13.1 146.19-13.65L146.19-13.65Q146.19-14.25 146.59-14.75L146.59-14.75Q145.99-15.15 145.99-15.7L145.99-15.7Q145.99-16.1 146.14-16.55L146.14-16.55Q146.14-16.5 146.16-16.55 146.19-16.6 146.24-16.95L146.24-16.95Q146.29-17.4 146.14-17.78 145.99-18.15 146.24-18.4L146.24-18.4Q146.19-18.5 146.16-18.6 146.14-18.7 146.14-18.8L146.14-18.8Q146.14-19.35 146.69-19.65L146.69-19.65 146.84-19.75Q146.84-19.8 146.81-19.8 146.79-19.8 146.79-19.85L146.79-19.85Q146.74-20.25 146.59-20.53 146.44-20.8 146.04-20.8L146.04-20.8Q145.94-20.8 145.54-20.7L145.54-20.7Q145.24-20.6 145.14-20.6L145.14-20.6Q145.04-20.6 144.59-20.75 144.14-20.9 144.14-21.1L144.14-21.1Q144.14-21.35 144.29-21.58 144.44-21.8 144.59-21.9L144.59-21.9Q145.14-22.2 145.89-22.6 146.64-23 147.34-23.5L147.34-23.5 147.59-23.8 147.69-23.95Q147.74-23.95 147.74-23.98 147.74-24 147.79-24L147.79-24 148.14-24.25 148.59-24.5Q148.64-24.55 148.71-24.6 148.79-24.65 148.84-24.7L148.84-24.7Q149.04-24.9 149.31-25.13 149.59-25.35 149.79-25.35L149.79-25.35Q150.29-25.35 150.39-25.1 150.49-24.85 150.54-24.45L150.54-24.45Q150.54-24.1 150.49-24L150.49-24 150.19-23.2Q149.94-22.55 149.76-21.78 149.59-21 149.39-20.25L149.39-20.25Q149.34-20.05 149.39-19.8 149.44-19.55 149.39-19.35L149.39-19.35Q149.29-18.85 149.16-18.38 149.04-17.9 148.99-17.4L148.99-17.4Q148.94-17 148.81-15.55 148.69-14.1 148.54-12.18 148.39-10.25 148.24-8.4 148.09-6.55 147.99-5.28 147.89-4 147.89-3.95L147.89-3.95Q147.89-3.8 147.91-3.3 147.94-2.8 148.04-2.45L148.04-2.45Q148.24-1.7 149.04-1.15L149.04-1.15Q149.14-1.1 149.29-1.05 149.44-1 149.54-0.95L149.54-0.95Q149.64-0.9 149.79-0.9 149.94-0.9 150.09-0.8L150.09-0.8Q150.29-0.75 150.46-0.7 150.64-0.65 150.64-0.45L150.64-0.45Q150.64-0.2 150.36 0.05 150.09 0.3 149.84 0.3ZM157.28 0.05L157.28 0.05Q155.58 0.05 154.61-0.68 153.63-1.4 152.93-2.5L152.93-2.5Q152.73-2.75 152.83-3.2L152.83-3.2Q152.33-3.7 151.86-4.35 151.38-5 151.38-5.75L151.38-5.75Q151.38-6.05 151.53-6.3 151.68-6.55 151.88-6.75L151.88-6.75 151.88-6.8Q151.88-7.2 152.18-7.48 152.48-7.75 152.78-7.95L152.78-7.95Q152.53-8.25 152.53-8.65L152.53-8.65Q152.53-9 152.73-9.3 152.93-9.6 153.23-9.85L153.23-9.85 153.38-10.05Q153.33-10.75 153.73-10.93 154.13-11.1 154.58-11.25L154.58-11.25Q154.93-11.65 155.38-11.93 155.83-12.2 156.33-12.5L156.33-12.5Q156.98-13.1 157.78-13.45L157.78-13.45Q158.33-13.75 158.78-14.05 159.23-14.35 159.98-14.35L159.98-14.35Q160.23-14.35 160.46-14.3 160.68-14.25 160.88-14.15L160.88-14.15Q161.73-14 162.13-13.48 162.53-12.95 162.53-12.5L162.53-12.5Q162.53-11.9 162.03-11.9L162.03-11.9Q161.53-11.9 160.83-12.45L160.83-12.45Q160.58-12.2 160.23-12.2L160.23-12.2 159.03-12.2Q158.83-12.2 158.61-12.15 158.38-12.1 158.18-12L158.18-12Q157.93-11.8 157.66-11.65 157.38-11.5 157.13-11.35L157.13-11.35Q156.78-11 156.41-10.68 156.03-10.35 155.58-10.1L155.58-10.1Q154.93-9.1 154.98-8.53 155.03-7.95 154.98-6.7L154.98-6.7Q154.98-6.65 155.06-6.23 155.13-5.8 155.03-5.7L155.03-5.7Q155.58-5.4 155.76-4.75 155.93-4.1 156.03-3.4 156.13-2.7 156.41-2.2 156.68-1.7 157.43-1.7L157.43-1.7Q158.88-1.7 160.08-2.23 161.28-2.75 161.78-4L161.78-4Q161.78-4.2 161.76-4.38 161.73-4.55 161.73-4.75L161.73-4.75Q161.73-5.05 161.83-5.33 161.93-5.6 162.28-5.8L162.28-5.8 162.48-5.9Q162.93-6.65 162.93-7.65L162.93-7.65Q162.93-8.45 162.61-9.1 162.28-9.75 161.58-9.95L161.58-9.95Q160.53-9.95 159.88-9.75L159.88-9.75Q159.68-9.65 159.46-9.53 159.23-9.4 159.08-9.25L159.08-9.25Q158.68-8.95 158.56-8.5 158.43-8.05 158.43-7.55L158.43-7.55Q158.43-7.2 158.46-6.85 158.48-6.5 158.53-6.25L158.53-6.25Q158.63-5.95 158.86-5.68 159.08-5.4 159.33-5.05L159.33-5.05Q159.63-4.7 159.63-4.4L159.63-4.4Q159.63-3.9 158.88-3.9L158.88-3.9Q158.28-3.9 157.61-4.48 156.93-5.05 156.98-6.3L156.98-6.3Q156.93-6.5 156.91-6.7 156.88-6.9 156.88-7.15L156.88-7.15 156.83-7.15Q156.83-8.45 157.41-9.53 157.98-10.6 159.13-11L159.13-11Q160.73-11.75 162.78-11.75L162.78-11.75Q164.18-11.75 164.88-10.88 165.58-10 165.83-8.78 166.08-7.55 166.08-6.5L166.08-6.5Q166.08-6.6 165.93-6.1 165.78-5.6 165.51-4.85 165.23-4.1 164.91-3.5 164.58-2.9 164.23-2.85L164.23-2.85Q163.73-2.85 163.43-2.5L163.43-2.5Q163.13-1.8 162.28-1.8L162.28-1.8 162.18-1.65Q162.13-1.6 162.06-1.58 161.98-1.55 161.88-1.5L161.88-1.5 161.73-1.3Q161.08-0.4 159.71-0.18 158.33 0.05 157.28 0.05ZM168.28 16.55L168.28 16.55Q167.78 16.55 167.48 16.3 167.18 16.05 167.03 15.7L167.03 15.7Q166.68 15.55 166.41 15.38 166.13 15.2 165.93 14.95L165.93 14.95Q165.33 14.55 164.78 13.93 164.23 13.3 164.23 12.8L164.23 12.8Q164.23 12.65 164.28 12.5 164.33 12.35 164.38 12.25L164.38 12.25Q163.68 12 163.68 11.3L163.68 11.3Q163.68 10.7 164.08 10.2L164.08 10.2 164.23 10Q164.38 9.75 164.38 9.75L164.38 9.75Q164.38 9.7 164.35 9.68 164.33 9.65 164.33 9.6L164.33 9.6Q163.98 9.35 163.73 9.08 163.48 8.8 163.48 8.3L163.48 8.3Q163.48 8.1 163.63 7.55 163.78 7 163.96 6.48 164.13 5.95 164.23 5.85L164.23 5.85Q164.88 5 166.25 4.13 167.63 3.25 168.93 3L168.93 3Q169.68 2.55 170.78 2.55L170.78 2.55Q172.33 2.55 173.6 3.43 174.88 4.3 175.48 5.65L175.48 5.65Q175.68 6.1 175.73 6.45L175.73 6.45Q175.78 6.7 175.83 7 175.88 7.3 175.88 7.55L175.88 7.55Q175.88 7.95 175.63 8.1L175.63 8.1Q175.33 9.45 174.41 10.65 173.48 11.85 171.63 11.85L171.63 11.85Q170.88 11.85 169.96 11.53 169.03 11.2 168.35 10.53 167.68 9.85 167.68 8.8L167.68 8.8Q167.68 7.65 168.03 7.2 168.38 6.75 169.03 6.3L169.03 6.3Q169.28 6.15 169.48 6.15L169.48 6.15Q169.93 6.15 170.18 6.65 170.43 7.15 170.43 7.7L170.43 7.7Q170.43 7.95 170.33 8.25L170.33 8.25 170.23 8.5 170.23 8.6Q170.23 8.8 170.31 9.3 170.38 9.8 170.38 10L170.38 10 171.13 10Q172.03 10 172.66 9.28 173.28 8.55 173.28 7.9L173.28 7.9Q173.28 7.6 173.13 7.4L173.13 7.4Q172.98 7.1 172.98 6.9L172.98 6.9Q172.98 6.65 173.06 6.38 173.13 6.1 173.13 5.85L173.13 5.85 173.13 5.75Q172.78 5.35 173.08 4.95L173.08 4.95Q172.38 4.35 171.98 4.35L171.98 4.35Q171.73 4.4 171.46 4.48 171.18 4.55 170.93 4.55L170.93 4.55Q170.73 4.55 170.53 4.45 170.33 4.35 170.13 4.25L170.13 4.25Q169.98 4.25 169.83 4.25 169.68 4.25 169.53 4.3L169.53 4.3Q168.73 4.75 168.31 5.45 167.88 6.15 166.88 6.3L166.88 6.3Q166.78 6.3 166.75 6.28 166.73 6.25 166.68 6.25L166.68 6.25Q166.43 6.8 166.18 7.6L166.18 7.6Q166.28 7.8 166.33 7.85L166.33 7.85 166.48 8.1Q166.58 8.3 166.68 8.53 166.78 8.75 166.78 9L166.78 9Q166.78 9.55 166.38 9.8L166.38 9.8 166.18 9.95Q166.33 10.5 166.71 10.73 167.08 10.95 167.08 11.95L167.08 11.95Q167.08 12.35 166.93 13.1L166.93 13.1Q166.83 13.85 166.93 13.95L166.93 13.95Q167.38 13.95 167.6 14.1 167.83 14.25 167.98 14.5L167.98 14.5Q169.03 14.8 169.78 14.8L169.78 14.8Q171.13 14.8 172.78 14.65 174.43 14.5 175.58 13.65L175.58 13.65Q175.83 13.15 176.23 13L176.23 13Q176.73 12.35 177.18 11.4 177.63 10.45 178.13 9.8L178.13 9.8 177.98 9.65Q177.73 9.25 177.73 8.55L177.73 8.55Q177.73 7.7 178.03 6.75 178.33 5.8 178.58 5.2L178.58 5.2 178.68 5.05 178.63 5.05Q178.48 5.05 178.31 4.88 178.13 4.7 177.88 4.05L177.88 4.05 177.78 4.05Q177.08 4.05 176.91 3.83 176.73 3.6 176.66 3.28 176.58 2.95 176.33 2.65 176.08 2.35 175.23 2.2L175.23 2.2Q174.88 2.1 174.5 2.05 174.13 2 173.63 1.85L173.63 1.85Q173.48 1.8 173.38 1.7 173.28 1.6 173.18 1.55L173.18 1.55Q172.23 1.3 171.5 0.78 170.78 0.25 170.78-0.65L170.78-0.65Q170.78-1.1 171-1.48 171.23-1.85 171.53-2.1L171.53-2.1Q170.23-2.75 169.81-4.15 169.38-5.55 169.38-7.85L169.38-7.85Q169.38-11.9 172.73-12.7L172.73-12.7Q173.03-13.05 173.6-13.25 174.18-13.45 175.28-13.45L175.28-13.45Q176.63-13.45 178.03-13L178.03-13 178.18-12.95Q177.73-13.8 177.41-14.63 177.08-15.45 176.93-16L176.93-16Q176.58-16.25 176.38-16.55 176.18-16.85 176.18-17.3L176.18-17.3Q176.18-17.8 176.68-18.15L176.68-18.15 176.63-18.3Q176.48-18.7 176.48-19L176.48-19Q176.48-20.1 177.83-20.25L177.83-20.25 177.83-20.3Q177.83-21.05 178.33-21.45 178.83-21.85 179.48-22.13 180.13-22.4 180.53-22.85L180.53-22.85Q180.73-23.05 181.03-23.05L181.03-23.05Q181.38-23.05 181.78-22.88 182.18-22.7 182.53-22.6L182.53-22.6Q184.33-22.1 184.48-20.75L184.48-20.75Q184.78-20.4 184.98-19.98 185.18-19.55 185.18-19.05L185.18-19.05Q185.18-18.45 184.88-17.85L184.88-17.85Q184.78-17.2 184.38-16.75 183.98-16.3 183.23-16.3L183.23-16.3 183.13-16.3Q183.08-16.3 183.03-16.28 182.98-16.25 182.93-16.25L182.93-16.25Q182.28-16.25 181.88-16.68 181.48-17.1 181.48-17.45L181.48-17.45Q181.48-17.7 181.71-17.88 181.93-18.05 182.43-17.95L182.43-17.95 182.88-17.85 183.08-17.75Q183.23-17.85 183.33-17.98 183.43-18.1 183.48-18.25L183.48-18.25 183.43-18.3Q182.98-18.75 182.96-19.18 182.93-19.6 182.98-20.1L182.98-20.1Q182.78-20.2 182.53-20.3 182.28-20.4 182.03-20.4L182.03-20.4Q180.68-20.4 179.75-19.63 178.83-18.85 178.83-17.4L178.83-17.4Q178.83-15.7 178.98-15.08 179.13-14.45 179.38-14.33 179.63-14.2 180-13.98 180.38-13.75 180.83-12.9L180.83-12.9Q181.08-12.4 181.21-11.85 181.33-11.3 181.53-10.8L181.53-10.8Q182.18-10.1 182.58-9.2 182.98-8.3 182.98-7.2L182.98-7.2Q182.98-6.25 182.58-5.45L182.58-5.45Q182.13-4.1 180.96-3.2 179.78-2.3 178.48-2.1L178.48-2.1Q176.78-1.5 175.28-1.5L175.28-1.5 174.48-1.5Q174.28-1.5 173.73-1.4 173.18-1.3 172.71-1.13 172.23-0.95 172.23-0.65L172.23-0.65Q172.48 0 173.48 0.18 174.48 0.35 175.78 0.48 177.08 0.6 178.23 1.07 179.38 1.55 179.98 2.75L179.98 2.75Q180.13 2.95 180.13 2.95L180.13 2.95Q181.13 3 181.35 3.48 181.58 3.95 181.58 4.8L181.58 4.8 181.58 5.1Q182.03 5.35 182.41 5.68 182.78 6 182.78 6.6L182.78 6.6Q182.78 7.05 182.53 7.33 182.28 7.6 181.93 7.8L181.93 7.8 181.93 7.85Q182.23 8.5 182.23 9L182.23 9Q182.23 9.55 181.85 9.93 181.48 10.3 180.63 10.7L180.63 10.7 180.58 10.7 180.58 10.95Q180.58 11.8 180.33 12.1 180.08 12.4 179.68 12.5 179.28 12.6 178.73 12.85L178.73 12.85 178.73 13Q178.73 14.5 177.53 14.5L177.53 14.5Q177.38 14.5 177.23 14.5 177.08 14.5 176.93 14.45L176.93 14.45Q176.58 15.85 174.58 16.2 172.58 16.55 168.28 16.55ZM175.98-3.1L175.98-3.1Q176.33-3.1 176.68-3.18 177.03-3.25 177.33-3.3L177.33-3.3Q177.48-3.55 177.73-3.7L177.73-3.7Q177.93-3.85 178.13-3.9L178.13-3.9Q178.18-4.75 178.31-5.25 178.43-5.75 179.58-5.75L179.58-5.75 179.58-5.8Q179.58-6.05 179.58-6.23 179.58-6.4 179.53-6.6L179.53-6.6Q179.48-6.8 179.41-7.05 179.33-7.3 179.38-7.65L179.38-7.65Q179.33-7.8 179.33-8.2L179.33-8.2Q179.33-8.7 179.53-9.15L179.53-9.15Q179.48-9.55 179.08-9.6 178.68-9.65 178.23-10.15L178.23-10.15Q177.93-10.55 177.75-10.83 177.58-11.1 177.33-11.3L177.33-11.3Q175.93-11.55 174.98-11.45L174.98-11.45Q174.58-11.15 174.28-10.83 173.98-10.5 173.58-10.1L173.58-10.1Q173.38-9.55 172.68-9.15L172.68-9.15Q172.48-9 172.25-8.45 172.03-7.9 171.88-7.33 171.73-6.75 171.73-6.5L171.73-6.5Q171.73-4.85 172.93-3.98 174.13-3.1 175.98-3.1ZM187.88 2.45L187.88 2.45Q187.28 2.45 186.4 2.18 185.53 1.9 184.88 1.4 184.23 0.9 184.23 0.25L184.23 0.25Q184.23-0.2 184.58-0.6L184.58-0.6Q184.18-0.9 184.18-1.45L184.18-1.45Q184.18-2.85 185.08-3.78 185.98-4.7 187.25-5.15 188.53-5.6 189.58-5.6L189.58-5.6 190.28-5.6Q190.43-5.6 190.58-5.6 190.73-5.6 190.93-5.5L190.93-5.5Q191.38-5.4 191.53-5.3L191.53-5.3Q192.18-5 192.73-4.53 193.28-4.05 193.28-3.4L193.28-3.4Q193.28-2.7 192.48-2.08 191.68-1.45 191.23-1.35L191.23-1.35Q191.08-1.3 190.83-1.3L190.83-1.3Q190.28-1.3 190.28-1.8L190.28-1.8Q190.28-2.55 190.93-2.9L190.93-2.9 191.03-2.95Q191.03-3.9 190.73-4.1L190.73-4.1Q190.43-4.2 190.28-4.2L190.28-4.2Q189.73-4.2 188.83-4 187.93-3.8 187.25-3.35 186.58-2.9 186.58-2.1L186.58-2.1Q186.58-1.7 186.6-1.05 186.63-0.4 186.88 0.08 187.13 0.55 187.73 0.55L187.73 0.55Q188.18 0.55 188.6 0.7 189.03 0.85 189.43 0.95L189.43 0.95 190.18 0.9Q190.48 0.75 190.95 0.5 191.43 0.25 192.28 0.25L192.28 0.25 192.58 0.25Q192.63 0.15 192.73 0.05L192.73 0.05Q193.03-0.7 193.73-1.07 194.43-1.45 195.03-1.8L195.03-1.8Q195.23-2.25 195.23-3.65L195.23-3.65Q195.23-4.5 194.55-5.25 193.88-6 192.93-6.65L192.93-6.65Q191.63-7.2 190.28-7.78 188.93-8.35 188-9.35 187.08-10.35 187.08-12.15L187.08-12.15Q187.08-13.05 187.75-13.83 188.43-14.6 189.38-15.18 190.33-15.75 191.25-16.05 192.18-16.35 192.68-16.35L192.68-16.35Q193.68-16.35 194.8-16.13 195.93-15.9 196.7-15.25 197.48-14.6 197.48-13.25L197.48-13.25Q197.48-12 196.55-11.43 195.63-10.85 194.68-10.75L194.68-10.75Q194.53-10.7 194.38-10.68 194.23-10.65 194.08-10.65L194.08-10.65Q193.58-10.65 193.2-10.93 192.83-11.2 192.58-11.6L192.58-11.6 192.48-11.75Q192.23-12.05 192.23-12.45L192.23-12.45Q192.23-12.95 192.83-12.95L192.83-12.95Q193.08-12.95 193.33-12.83 193.58-12.7 193.78-12.4L193.78-12.4 193.88-12.25Q193.88-12.25 193.88-12.23 193.88-12.2 193.93-12.2L193.93-12.2 193.98-12.15Q194.18-12.15 194.28-12.2L194.28-12.2Q194.68-12.35 195.05-12.85 195.43-13.35 195.43-13.75L195.43-13.75Q195.43-14 194.93-14.4 194.43-14.8 193.83-14.8L193.83-14.8Q193.38-14.8 192.43-14.53 191.48-14.25 191.28-13.7L191.28-13.7Q191.13-13.3 191-13 190.88-12.7 190.73-12.45L190.73-12.45Q190.73-12.4 190.7-12.3 190.68-12.2 190.68-12.1L190.68-12.1Q190.68-11.65 190.85-11.18 191.03-10.7 191.23-10L191.23-10Q191.28-9.8 191.28-9.68 191.28-9.55 191.28-9.45L191.28-9.45Q191.78-9.1 192.33-8.72 192.88-8.35 193.38-8.05L193.38-8.05Q194.98-7.4 196.23-6.43 197.48-5.45 197.48-3.4L197.48-3.4Q197.48-2.35 197.08-1.8 196.68-1.25 196.13-0.85L196.13-0.85Q195.83-0.45 195.3-0.1 194.78 0.25 193.93 0.8L193.93 0.8Q193.78 1.05 193.68 1.23 193.58 1.4 193.48 1.5L193.48 1.5Q193.28 1.85 193 2.1 192.73 2.35 192.03 2.35L192.03 2.35 190.53 2.35Q190.38 2.4 190.23 2.4 190.08 2.4 189.93 2.4L189.93 2.4 189.43 2.4Q189.08 2.4 188.68 2.43 188.28 2.45 187.88 2.45Z" opacity="1" transform="matrix(1,0,0,1,0,0)" fill="#ffffff" class="wordmark-text-0" data-fill-palette-color="quaternary" id="text-0"></path></svg></g></svg></g><g transform="matrix(1,0,0,1,20.236883092036805,73.04081812939874)"><svg viewBox="0 0 172.68467504308353 19.337842652983184" height="19.337842652983184" width="172.68467504308353"><g transform="matrix(1,0,0,1,0,0)"><svg width="172.68467504308353" viewBox="-4.43 -38.8 575.55 65.34" height="19.337842652983184" data-palette-color="#ffffff"><path d="M25.49-27.1L25.49-27.1Q22.31-30.22 18.46-30.22L18.46-30.22Q14.79-30.22 11.43-27.44L11.43-27.44Q7.18-23.93 5.57-18.36L5.57-18.36Q4.98-16.36 4.98-15.04 4.98-13.72 5.08-12.99L5.08-12.99Q5.08-8.15 8.35-5.57L8.35-5.57Q11.43-3.17 16.21-3.17L16.21-3.17Q22.75-3.71 28.76-8.2L28.76-8.2Q30.42-9.47 32.28-10.64L32.28-10.64Q32.96-10.64 33.67-10.45 34.38-10.25 34.38-9.33L34.38-9.33Q29.54-5.13 26.22-3.27L26.22-3.27Q20.07 0.05 15.09 0.05L15.09 0.05Q14.75 0.05 14.45 0.05L14.45 0.05Q9.03 0.05 5.18-3.32L5.18-3.32Q1.07-6.88 1.07-12.21L1.07-12.21Q1.07-16.21 2.51-19.87 3.96-23.54 6.47-26.34 8.98-29.15 12.43-30.81 15.87-32.47 19.82-32.47L19.82-32.47Q23.19-32.47 24.22-31.54L24.22-31.54Q25.49-30.42 25.49-27.1ZM60.69-17.82L60.69-17.82Q58.64-19.29 55.42-19.29L55.42-19.29Q52.39-19.29 49.8-18.16L49.8-18.16Q44.92-16.11 43.11-12.89L43.11-12.89Q42.33-11.43 42.33-9.77L42.33-9.77Q42.33-9.47 42.33-8.13 42.33-6.79 42.82-4.52 43.31-2.25 43.31 0.1L43.31 0.1Q42.28 0.15 41.65 0.34 41.01 0.54 40.57 0.54 40.13 0.54 39.82 0.15 39.5-0.24 39.11-1.37L39.11-1.37Q39.06-1.66 38.91-3.03 38.77-4.39 38.55-6.35 38.33-8.3 38.06-10.62 37.79-12.94 37.55-15.19L37.55-15.19Q37.01-20.07 36.72-22.36L36.72-22.36Q36.72-23.54 38.43-23.54L38.43-23.54Q39.45-23.54 40.04-22.68 40.62-21.83 40.96-20.73 41.31-19.63 41.43-18.55 41.55-17.48 41.65-17.04L41.65-17.04Q48.09-22.8 57.66-22.8L57.66-22.8Q58.74-22.8 59.91-22.75L59.91-22.75Q60.2-22.8 60.64-22.8 61.08-22.8 61.52-22.22L61.52-22.22Q62.06-21.53 62.06-20.56L62.06-20.56Q62.06-18.12 60.69-17.82ZM74.26-3.42L74.26-3.42Q78.56-3.42 87.2-7.32L87.2-7.32Q87.74-7.32 88.08-6.96 88.42-6.59 88.42-6.1L88.42-6.1Q86.47-2.78 80.95-0.93 75.43 0.93 70.65-0.29L70.65-0.29Q65.23-1.71 64.06-6.4L64.06-6.4Q63.96-7.32 63.96-8.89 63.96-10.45 64.77-13.01 65.57-15.58 67.52-17.87 69.48-20.17 72.11-21.48 74.75-22.8 77.73-22.8L77.73-22.8Q80.56-22.8 84.08-20.85L84.08-20.85Q85.74-19.92 86.71-18.75 87.69-17.58 87.69-16.36L87.69-16.36Q87.69-16.02 87.64-15.67L87.64-15.67Q87.54-12.7 84.76-11.91L84.76-11.91Q83.54-11.57 81.93-11.57L81.93-11.57 74.9-11.87Q71.38-11.87 69.53-10.35L69.53-10.35Q68.45-9.52 68.01-7.86L68.01-7.86Q69.23-3.42 74.26-3.42ZM82.98-18.51Q81.88-19.29 80.71-19.63 79.54-19.97 78.75-19.97 77.97-19.97 76.22-19.46 74.46-18.95 73.09-18.31L73.09-18.31Q69.72-16.75 69.72-15.04L69.72-15.04Q73.63-14.7 75.58-14.7L75.58-14.7Q81-14.7 82.91-15.63L82.91-15.63Q84.08-16.11 84.08-16.85L84.08-16.85Q84.08-17.72 82.98-18.51ZM110.54-8.11L110.54-8.11Q106.88-2.34 100.77-0.98L100.77-0.98Q99.36-0.68 98.21-0.68 97.06-0.68 96.31-0.71 95.55-0.73 94.62-0.93 93.69-1.12 92.91-1.56L92.91-1.56Q91.11-2.59 91.11-4.44L91.11-4.44Q90.91-5.32 90.91-6.42 90.91-7.52 91.4-9.33 91.89-11.13 93.18-13.23 94.47-15.33 96.33-17.09L96.33-17.09Q100.19-20.8 104.68-21.88L104.68-21.88Q106-22.17 107.1-22.17 108.2-22.17 109.07-22.02L109.07-22.02Q111.91-22.02 112.88-18.16L112.88-18.16Q113.52-15.72 113.64-11.35 113.76-6.98 113.88-4.61 114.01-2.25 114.49-0.29L114.49-0.29 111.61-0.29Q111.42-1.61 111.32-2.64 111.22-3.66 111.13-4.54L111.13-4.54Q110.88-6.59 110.54-8.11ZM110.34-15.67L110.34-15.67Q110.34-18.51 107.56-18.51L107.56-18.51Q107.22-18.55 106.88-18.55L106.88-18.55Q103.31-18.55 99.36-15.14L99.36-15.14Q97.5-13.57 96.18-11.62L96.18-11.62Q94.23-8.84 94.23-6.64L94.23-6.64Q94.23-3.76 97.55-3.22L97.55-3.22Q101.95-3.32 105.95-7.23L105.95-7.23Q107.66-8.94 108.78-10.94L108.78-10.94Q110.34-13.62 110.34-15.67ZM124.16-4.69L124.16-4.69 124.26-12.5Q124.26-14.36 123.92-15.67L123.92-15.67 116.35-15.67 116.25-19.04 123.57-19.04 123.57-31.64Q123.72-32.08 124.16-32.52L124.16-32.52Q124.84-33.2 125.31-33.2 125.77-33.2 126.11-33.11 126.45-33.01 126.85-32.42L126.85-32.42Q127.63-29.2 127.63-22.71L127.63-22.71Q127.63-21.09 127.77-19.53L127.77-19.53Q129.34-19.73 130.9-19.73L130.9-19.73Q130.9-19.73 133.44-19.73L133.44-19.73Q134.37-19.73 135.15-19.82L135.15-19.82 135-16.31 127.87-16.5 128.12 0.34Q127.24 0.73 126.6 0.73L126.6 0.73Q124.16 0.73 124.16-4.69ZM146.96-3.42L146.96-3.42Q151.26-3.42 159.9-7.32L159.9-7.32Q160.44-7.32 160.78-6.96 161.12-6.59 161.12-6.1L161.12-6.1Q159.17-2.78 153.65-0.93 148.13 0.93 143.35-0.29L143.35-0.29Q137.93-1.71 136.76-6.4L136.76-6.4Q136.66-7.32 136.66-8.89 136.66-10.45 137.46-13.01 138.27-15.58 140.22-17.87 142.18-20.17 144.81-21.48 147.45-22.8 150.43-22.8L150.43-22.8Q153.26-22.8 156.77-20.85L156.77-20.85Q158.43-19.92 159.41-18.75 160.39-17.58 160.39-16.36L160.39-16.36Q160.39-16.02 160.34-15.67L160.34-15.67Q160.24-12.7 157.46-11.91L157.46-11.91Q156.24-11.57 154.63-11.57L154.63-11.57 147.59-11.87Q144.08-11.87 142.22-10.35L142.22-10.35Q141.15-9.52 140.71-7.86L140.71-7.86Q141.93-3.42 146.96-3.42ZM155.68-18.51Q154.58-19.29 153.41-19.63 152.23-19.97 151.45-19.97 150.67-19.97 148.91-19.46 147.16-18.95 145.79-18.31L145.79-18.31Q142.42-16.75 142.42-15.04L142.42-15.04Q146.33-14.7 148.28-14.7L148.28-14.7Q153.7-14.7 155.6-15.63L155.6-15.63Q156.77-16.11 156.77-16.85L156.77-16.85Q156.77-17.72 155.68-18.51ZM196.32 0.88L196.32 0.88Q195.54 0.88 194.66 0.39L194.66 0.39Q192.95-0.63 193.29-1.42L193.29-1.42Q193.88-2.44 194.81-5.52L194.81-5.52 196.13-9.91Q196.81-12.01 197.49-14.55L197.49-14.55 184.46-27.83Q184.11-28.27 184.11-28.61 184.11-28.96 184.5-29.15L184.5-29.15Q185.14-29.44 186.04-29.44 186.95-29.44 187.9-29.15 188.85-28.86 190.27-27.69L190.27-27.69Q193.05-25.34 199.4-17.77L199.4-17.77Q202.28-26.17 203.55-28.59 204.82-31.01 205.57-31.71 206.33-32.42 206.94-32.47 207.55-32.52 207.99-32.42 208.43-32.32 208.63-31.74L208.63-31.74Q207.11-28.52 205.72-24.44 204.33-20.36 202.86-16.02L202.86-16.02Q199.01-4.49 196.32 0.88ZM211.99-9.28L211.99-9.28Q211.99-15.04 216.97-18.55L216.97-18.55Q220.93-21.34 226.49-21.92L226.49-21.92Q226.79-21.92 227.86-21.92 228.94-21.92 230.74-21.29L230.74-21.29Q234.75-19.92 236.21-16.46L236.21-16.46Q236.8-15.09 236.8-14.14 236.8-13.18 236.75-12.79L236.75-12.79Q236.75-6.69 232.11-3.17L232.11-3.17Q227.81 0.05 221.37 0.05L221.37 0.05Q216.73 0.05 214.36-2.1 211.99-4.25 211.99-9.28ZM215.36-8.11L215.36-8.11Q215.36-5.08 216.97-4L216.97-4Q218.19-3.22 221.07-3.22 223.95-3.22 226.15-3.66 228.35-4.1 230.06-5.18L230.06-5.18Q233.72-7.52 233.72-12.45L233.72-12.45Q233.72-15.38 232.16-17.24L232.16-17.24Q230.45-19.24 227.67-19.24L227.67-19.24Q225.76-18.9 223.83-18.51 221.9-18.12 220.19-16.99L220.19-16.99Q216.48-14.6 215.36-8.11ZM238.65-6.49L238.65-6.49Q238.65-7.28 238.53-8.67 238.41-10.06 238.31-11.72 238.21-13.38 238.21-15.09 238.21-16.8 238.5-18.21L238.5-18.21Q239.14-21.39 241.14-21.39L241.14-21.39Q242.51-21 242.97-20.41 243.43-19.82 243.43-18.97 243.43-18.12 243-16.85L243-16.85Q241.38-12.6 241.38-9.18L241.38-9.18Q241.38-8.06 241.53-6.79L241.53-6.79Q242.31-3.52 246.9-3.52L246.9-3.52Q249.29-3.52 251.44-4.35L251.44-4.35Q255.54-5.86 257.01-7.91L257.01-7.91Q257.45-10.16 257.45-11.84 257.45-13.53 257.33-14.84 257.2-16.16 257.03-17.75 256.86-19.34 256.81-21.24L256.81-21.24Q257.45-21.53 258.06-21.53 258.67-21.53 259.33-20.9 259.99-20.26 260.45-18.51 260.92-16.75 261.06-14.38 261.21-12.01 261.23-9.47 261.26-6.93 261.26-4.57 261.26-2.2 261.45-0.49L261.45-0.49Q260.87 0.05 260.33 0.05L260.33 0.05Q258.38 0.05 257.45-3.86L257.45-3.86Q256.81-3.32 255.3-2.54L255.3-2.54Q252.08-0.78 247.68-0.2L247.68-0.2Q246.85-0.1 245.83-0.1 244.8-0.1 243.26-0.49 241.73-0.88 240.36-2.29 238.99-3.71 238.65-6.49ZM288.26-17.82L288.26-17.82Q286.21-19.29 282.98-19.29L282.98-19.29Q279.96-19.29 277.37-18.16L277.37-18.16Q272.48-16.11 270.68-12.89L270.68-12.89Q269.9-11.43 269.9-9.77L269.9-9.77Q269.9-9.47 269.9-8.13 269.9-6.79 270.39-4.52 270.87-2.25 270.87 0.1L270.87 0.1Q269.85 0.15 269.21 0.34 268.58 0.54 268.14 0.54 267.7 0.54 267.38 0.15 267.06-0.24 266.67-1.37L266.67-1.37Q266.63-1.66 266.48-3.03 266.33-4.39 266.11-6.35 265.89-8.3 265.62-10.62 265.36-12.94 265.11-15.19L265.11-15.19Q264.57-20.07 264.28-22.36L264.28-22.36Q264.28-23.54 265.99-23.54L265.99-23.54Q267.02-23.54 267.6-22.68 268.19-21.83 268.53-20.73 268.87-19.63 268.99-18.55 269.12-17.48 269.21-17.04L269.21-17.04Q275.66-22.8 285.23-22.8L285.23-22.8Q286.3-22.8 287.48-22.75L287.48-22.75Q287.77-22.8 288.21-22.8 288.65-22.8 289.09-22.22L289.09-22.22Q289.62-21.53 289.62-20.56L289.62-20.56Q289.62-18.12 288.26-17.82ZM336.25-0.78L336.25-0.78Q336.25 0.1 334.74 0.1L334.74 0.1Q334 0.1 333.39-0.12 332.78-0.34 332.64-0.49L332.64-0.49 333.12-6.74Q328.63-2.88 326.58-1.9L326.58-1.9Q323.36-0.29 319.99-0.29L319.99-0.29Q319.35-0.29 318.67-0.34L318.67-0.34Q311.54-1.12 311.54-9.47L311.54-9.47Q311.54-13.28 313.5-22.41L313.5-22.41Q314.13-25.24 314.33-27.59L314.33-27.59Q314.47-27.64 314.96-27.64L314.96-27.64Q314.96-27.64 315.55-27.64L315.55-27.64Q315.79-27.69 315.99-27.69L315.99-27.69Q317.55-27.69 317.55-25.34L317.55-25.34Q317.55-23.73 316.91-21.34L316.91-21.34Q314.96-13.48 314.96-10.45L314.96-10.45Q314.96-7.28 316.62-5.47L316.62-5.47Q317.69-4.3 319.99-4.05L319.99-4.05Q320.28-4.05 320.58-4.05L320.58-4.05Q328.53-4.05 331.02-11.72L331.02-11.72Q332.49-16.21 332.73-22.56L332.73-22.56Q332.88-25.49 332.98-28.37L332.98-28.37Q333.51-29.83 334.44-29.83L334.44-29.83Q335.37-29.83 336.49-29L336.49-29Q336.64-26.17 336.64-23.44L336.64-23.44 336.15-4.79Q336.15-2.78 336.25-0.78ZM358.95-7.71L359-10.69Q359-16.5 358.37-19.24L358.37-19.24Q358.76-19.97 357.19-19.97L357.19-19.97Q355.53-19.97 352.9-19.14 350.26-18.31 348.6-17.48L348.6-17.48Q344.65-15.58 344.21-13.77L344.21-13.77 344.21-0.49 340.93-0.49Q340.3-2.15 340.3-9.81L340.3-9.81Q340.3-16.65 340.57-19.87 340.84-23.1 340.98-23.54L340.98-23.54Q342.25-24.37 343.03-24.37L343.03-24.37Q344.25-24.37 344.25-21.48L344.25-21.48Q344.25-20.36 344.13-19.31 344.01-18.26 344.01-17.87L344.01-17.87Q351.92-23.68 356.27-23.68L356.27-23.68Q361.2-23.68 361.88-15.72L361.88-15.72Q362.17-12.94 362.17-8.01L362.17-8.01 362.13-4.15Q362.13-2 362.22 0L362.22 0Q361.74 0.29 361.44 0.29L361.44 0.29Q361.3 0.24 360.81 0.15 360.32 0.05 359.54 0L359.54 0Q359.05-1.95 359-3.98 358.95-6.01 358.95-7.71L358.95-7.71ZM366.27-22.95L369.35-22.95Q369.98-13.82 370.42-1.81L370.42-1.81Q370.13-0.29 368.08-0.29L368.08-0.29Q367.54-0.29 366.98-0.51 366.42-0.73 366.27-1.12L366.27-1.12 366.27-22.95ZM364.81-29.59L364.81-29.59Q364.81-31.3 366.81-31.3L366.81-31.3Q368.13-31.3 368.96-30.71L368.96-30.71Q369.11-30.18 369.11-29.66 369.11-29.15 368.72-28.66L368.72-28.66Q368.32-28.17 367.54-28.17 366.76-28.17 365.98-28.54 365.2-28.91 364.81-29.59ZM395.62 17.29L394.88 17.29 393.57 17.33 392.44 17.33 391.71-4Q389.81-2.2 385.95-0.98L385.95-0.98Q382.43 0.15 379.65 0.15L379.65 0.15Q377.4 0.15 375.91-0.49 374.43-1.12 373.72-1.88 373.01-2.64 372.98-3.47 372.96-4.3 372.96-4.79L372.96-4.79Q372.96-7.62 374.33-10.3 375.69-12.99 378.23-15.14 380.77-17.29 383.82-18.41 386.88-19.53 389.76-19.53L389.76-19.53 390.44-19.53Q391.86-19.53 393.03-18.51 394.2-17.48 394.98-16.21L394.98-16.21Q394.98-7.71 395.03 0.54 395.08 8.79 395.62 17.29L395.62 17.29ZM390.44-9.96L390.73-13.96Q390.73-16.26 389.76-16.26L389.76-16.26Q384.83-16.26 380.87-13.38L380.87-13.38Q376.67-10.21 376.67-5.47L376.67-5.47Q376.67-3.13 379.31-3.03L379.31-3.03Q380.04-3.03 381.24-3.03 382.43-3.03 384.14-3.34 385.85-3.66 387.22-4.49L387.22-4.49Q390.44-6.3 390.44-9.96L390.44-9.96ZM397.96-6.49L397.96-6.49Q397.96-7.28 397.84-8.67 397.71-10.06 397.62-11.72 397.52-13.38 397.52-15.09 397.52-16.8 397.81-18.21L397.81-18.21Q398.45-21.39 400.45-21.39L400.45-21.39Q401.82-21 402.28-20.41 402.74-19.82 402.74-18.97 402.74-18.12 402.3-16.85L402.3-16.85Q400.69-12.6 400.69-9.18L400.69-9.18Q400.69-8.06 400.84-6.79L400.84-6.79Q401.62-3.52 406.21-3.52L406.21-3.52Q408.6-3.52 410.75-4.35L410.75-4.35Q414.85-5.86 416.32-7.91L416.32-7.91Q416.76-10.16 416.76-11.84 416.76-13.53 416.63-14.84 416.51-16.16 416.34-17.75 416.17-19.34 416.12-21.24L416.12-21.24Q416.76-21.53 417.37-21.53 417.98-21.53 418.64-20.9 419.3-20.26 419.76-18.51 420.22-16.75 420.37-14.38 420.52-12.01 420.54-9.47 420.57-6.93 420.57-4.57 420.57-2.2 420.76-0.49L420.76-0.49Q420.17 0.05 419.64 0.05L419.64 0.05Q417.68 0.05 416.76-3.86L416.76-3.86Q416.12-3.32 414.61-2.54L414.61-2.54Q411.39-0.78 406.99-0.2L406.99-0.2Q406.16-0.1 405.14-0.1 404.11-0.1 402.57-0.49 401.03-0.88 399.67-2.29 398.3-3.71 397.96-6.49ZM433.55-3.42L433.55-3.42Q437.85-3.42 446.49-7.32L446.49-7.32Q447.03-7.32 447.37-6.96 447.71-6.59 447.71-6.1L447.71-6.1Q445.76-2.78 440.24-0.93 434.72 0.93 429.94-0.29L429.94-0.29Q424.52-1.71 423.35-6.4L423.35-6.4Q423.25-7.32 423.25-8.89 423.25-10.45 424.05-13.01 424.86-15.58 426.81-17.87 428.77-20.17 431.4-21.48 434.04-22.8 437.02-22.8L437.02-22.8Q439.85-22.8 443.37-20.85L443.37-20.85Q445.03-19.92 446-18.75 446.98-17.58 446.98-16.36L446.98-16.36Q446.98-16.02 446.93-15.67L446.93-15.67Q446.83-12.7 444.05-11.91L444.05-11.91Q442.83-11.57 441.22-11.57L441.22-11.57 434.19-11.87Q430.67-11.87 428.81-10.35L428.81-10.35Q427.74-9.52 427.3-7.86L427.3-7.86Q428.52-3.42 433.55-3.42ZM442.27-18.51Q441.17-19.29 440-19.63 438.82-19.97 438.04-19.97 437.26-19.97 435.5-19.46 433.75-18.95 432.38-18.31L432.38-18.31Q429.01-16.75 429.01-15.04L429.01-15.04Q432.92-14.7 434.87-14.7L434.87-14.7Q440.29-14.7 442.19-15.63L442.19-15.63Q443.37-16.11 443.37-16.85L443.37-16.85Q443.37-17.72 442.27-18.51ZM472.51-32.42L472.51-32.42Q476.12-33.2 479.35-33.2 482.57-33.2 485.08-32.96 487.6-32.71 490.14-32.03L490.14-32.03Q495.51-30.52 496.78-27.93L496.78-27.93Q497.12-27.39 497.12-26.66L497.12-26.66Q497.12-24.51 493.36-22.02L493.36-22.02Q490.87-20.36 486.23-18.65L486.23-18.65Q497.61-18.02 501.66-15.33L501.66-15.33Q503.91-13.92 503.91-12.01L503.91-12.01Q503.91-9.38 500.2-6.54L500.2-6.54Q496.14-3.52 489.85-1.51L489.85-1.51Q484.03 0.34 479.05 0.34L479.05 0.34Q475.25 0.34 472.51-0.78L472.51-0.78Q472.41-3.91 472.27-7.23L472.27-7.23Q471.88-14.6 471.88-19.65 471.88-24.71 472.22-30.18L472.22-30.18Q471.68-30.18 471.24-30.3 470.8-30.42 470.8-31.25L470.8-31.25Q470.8-32.42 472.51-32.42ZM475.73-14.6L476.91-3.22Q484.77-3.66 489.8-5.1 494.83-6.54 497.05-8.23 499.27-9.91 499.27-11.47L499.27-11.47Q499.27-13.53 496.34-14.75L496.34-14.75Q493.17-16.02 487.92-16.02 482.67-16.02 475.73-14.6L475.73-14.6ZM481.45-30.03L481.45-30.03 480.23-30.03Q476.22-30.03 475.73-29.2L475.73-29.2 475.25-19.38Q479.64-19.38 485.94-21.48L485.94-21.48Q490.04-22.9 491.94-24.61L491.94-24.61Q492.92-25.49 492.92-26.42 492.92-27.34 492.21-27.95 491.51-28.56 490.41-28.96 489.31-29.35 487.97-29.57 486.62-29.79 485.35-29.88L485.35-29.88Q483.4-30.03 481.45-30.03ZM507.08-18.95Q506.98-21.58 506.88-23.66 506.79-25.73 506.76-26.73 506.74-27.73 505.96-31.64L505.96-31.64Q506.4-32.23 506.81-32.76 507.23-33.3 508.01-33.3L508.01-33.3Q509.72-33.3 510.64-18.9L510.64-18.9Q511.13-10.55 511.13-2.2L511.13-2.2Q511.13 0.05 508.01 0.05L508.01 0.05 507.62 0Q507.62-2.54 507.47-6.49 507.32-10.45 507.25-13.38 507.18-16.31 507.08-18.95ZM515.28-9.28L515.28-9.28Q515.28-15.04 520.26-18.55L520.26-18.55Q524.22-21.34 529.78-21.92L529.78-21.92Q530.07-21.92 531.15-21.92 532.22-21.92 534.03-21.29L534.03-21.29Q538.03-19.92 539.5-16.46L539.5-16.46Q540.08-15.09 540.08-14.14 540.08-13.18 540.04-12.79L540.04-12.79Q540.04-6.69 535.4-3.17L535.4-3.17Q531.1 0.05 524.65 0.05L524.65 0.05Q520.02 0.05 517.65-2.1 515.28-4.25 515.28-9.28ZM518.65-8.11L518.65-8.11Q518.65-5.08 520.26-4L520.26-4Q521.48-3.22 524.36-3.22 527.24-3.22 529.44-3.66 531.64-4.1 533.35-5.18L533.35-5.18Q537.01-7.52 537.01-12.45L537.01-12.45Q537.01-15.38 535.45-17.24L535.45-17.24Q533.74-19.24 530.95-19.24L530.95-19.24Q529.05-18.9 527.12-18.51 525.19-18.12 523.48-16.99L523.48-16.99Q519.77-14.6 518.65-8.11ZM556.29 20.9L556.29 20.9 555.61 20.85Q554.14 20.85 552.48 21.04L552.48 21.04 550.63 21.04Q547.7 21.04 546.04 19.92L546.04 19.92Q545.16 19.34 545.16 18.16L545.16 18.16 556.39 17.63Q561.57 17.48 561.57 12.06L561.57 12.06Q561.57 11.87 561.57 11.4 561.57 10.94 561.57 9.38L561.57 9.38 561.81-6.35Q561.81-7.18 561.76-7.71L561.76-7.71Q553.85-0.34 546.53-0.34L546.53-0.34Q545.89-0.34 545.26-0.39L545.26-0.39Q541.99-0.39 541.99-3.27L541.99-3.27Q542.08-5.52 543.3-8.23 544.53-10.94 546.45-13.45 548.38-15.97 550.82-17.97L550.82-17.97Q554.58-21.04 558.1-21.04L558.1-21.04Q562.2-21.04 564.84-16.7L564.84-16.7Q565.62-5.08 565.62-0.2 565.62 4.69 565.47 7.81 565.33 10.94 564.81 13.53 564.3 16.11 563.47 17.63 562.64 19.14 561.52 19.82L561.52 19.82Q559.66 20.9 556.29 20.9ZM559.22-17.48L559.22-17.48Q558.64-17.68 557.59-17.68 556.54-17.68 554.88-16.8 553.22-15.92 551.7-14.53 550.19-13.13 548.87-11.43L548.87-11.43Q545.65-7.23 545.65-4.74L545.65-4.74Q545.65-3.96 546.09-3.56L546.09-3.56Q546.43-3.37 546.94-3.37 547.45-3.37 548.43-3.54 549.41-3.71 551.09-4.42 552.78-5.13 554.58-6.25 556.39-7.37 557.86-8.74L557.86-8.74Q561.27-11.87 561.27-14.84L561.27-14.84Q561.27-16.65 559.22-17.48Z" opacity="1" transform="matrix(1,0,0,1,0,0)" fill="#ffffff" class="slogan-text-1" data-fill-palette-color="quaternary" id="text-1"></path></svg></g></svg></g></svg></g></svg></g><g transform="matrix(1,0,0,1,57.5475728768659,104.34657596037756)"><svg viewBox="0 0 98.06329547342534 127.66730920125184" height="127.66730920125184" width="98.06329547342534"><g><svg xmlns="http://www.w3.org/2000/svg" xmlns:xlink="http://www.w3.org/1999/xlink" version="1.1" x="0" y="0" viewBox="23.5 15.5 53.000000000000014 69" style="enable-background:new 0 0 100 100;" xml:space="preserve" height="127.66730920125184" width="98.06329547342534" class="icon-icon-0" data-fill-palette-color="quaternary" id="icon-0"><g fill="#ffffff" data-fill-palette-color="quaternary"><path class="" d="M35.2 64v9c0 0.8 0.7 1.5 1.5 1.5h26.6c0.8 0 1.5-0.7 1.5-1.5v-9c7.3-4.9 11.7-13.1 11.7-22 0-14.6-11.9-26.5-26.5-26.5S23.5 27.4 23.5 42C23.5 50.9 27.9 59 35.2 64zM50 18.5C63 18.5 73.5 29 73.5 42c0 8.1-4.1 15.5-11 19.9-0.4 0.3-0.7 0.8-0.7 1.3v8.3H38.2v-8.3c0-0.5-0.3-1-0.7-1.3-6.9-4.3-11-11.8-11-19.9C26.5 29 37 18.5 50 18.5z" fill="#ffffff" data-fill-palette-color="quaternary"></path><path class="" d="M40.8 48.3c0.6 0.8 1.9 0.8 2.5 0l4.1-6.1 4.1 6.1c0.3 0.4 0.7 0.7 1.2 0.7s1-0.3 1.2-0.7l4.1-6.1 4.1 6.1c0.3 0.4 0.8 0.7 1.2 0.7 0.3 0 0.6-0.1 0.8-0.3 0.7-0.5 0.9-1.4 0.4-2.1l-5.3-8c-0.6-0.8-1.9-0.8-2.5 0l-4.1 6.1-4.1-6.1c-0.6-0.8-1.9-0.8-2.5 0L42 44.8l-4.1-6.1c-0.5-0.7-1.4-0.9-2.1-0.4-0.7 0.5-0.9 1.4-0.4 2.1L40.8 48.3z" fill="#ffffff" data-fill-palette-color="quaternary"></path><path class="" d="M60.3 76.5H39.7c-0.8 0-1.5 0.7-1.5 1.5s0.7 1.5 1.5 1.5h20.6c0.8 0 1.5-0.7 1.5-1.5S61.1 76.5 60.3 76.5z" fill="#ffffff" data-fill-palette-color="quaternary"></path><path class="" d="M60.3 81.5H39.7c-0.8 0-1.5 0.7-1.5 1.5s0.7 1.5 1.5 1.5h20.6c0.8 0 1.5-0.7 1.5-1.5S61.1 81.5 60.3 81.5z" fill="#ffffff" data-fill-palette-color="quaternary"></path></g></svg></g></svg></g><g></g></svg></g></svg></g></svg></g></svg></g><defs></defs></svg><rect width="333.90454557049503" height="333.90454557049503" fill="none" stroke="none" visibility="hidden"></rect></g></svg></g></svg>